<svg width="806" height="726" viewBox="0 0 806 726" fill="none" xmlns="http://www.w3.org/2000/svg">
<path fill-rule="evenodd" clip-rule="evenodd" d="M474.761 334.402C469.011 341.919 470.037 345.024 462.674 350.858C458.833 353.901 459.689 355.101 456.777 358.751C449.455 367.932 425.942 370.692 427.139 394.977C429.303 402.432 426.452 398.548 432.879 403.271C442.808 410.565 431.668 409.843 462.154 421.095C465.265 418.749 471.943 411.387 473.654 410.493C478.111 408.165 485.554 410.8 491.751 409.181C496.182 408.023 505.957 408.553 510.636 410.072C520.652 413.322 519.032 411.131 528.604 409.378C528.008 406.524 529.051 405.193 529.523 401.869C526.383 399.7 525.383 400.004 523.903 396.135C526.513 393.513 527.646 394.744 531.05 392.445C531.039 388.299 527.361 382.215 536.164 376.356C539.718 373.99 540.195 376.523 544.222 374.959C546.367 369.459 544.411 370.942 544.421 366.608C543.382 365.209 542.713 368.451 543.552 363.582C547.295 361.342 547.092 362.95 549.722 361.772C550.855 361.265 552.147 359.773 553.909 358.868C556.906 360.192 557.025 360.843 559.125 362.074C560.528 353.736 561.189 357.07 557.743 350.724C555.772 347.095 555.878 344.457 556.206 339.56C559.308 337.468 558.392 339.448 560.474 336.187L557.075 334.514C557.04 334.469 555.387 332.761 555.162 332.5C549.205 333.322 536.14 337.56 529.649 336.049C527.263 335.494 526.501 334.398 523.169 333.586C508.306 329.963 513.329 324.453 507.291 324.155C501.668 325.584 503.36 328.63 495.886 329.222C491.84 323.764 493.786 325.491 489.057 323.332C486.455 322.144 488.159 323.372 486.431 321.724L485.457 317.057C482.894 319.185 480.224 320.596 478.927 325.4C478.276 327.81 477.11 335.497 474.762 334.403L474.761 334.402ZM566.115 294.179L567.127 292.226L565.237 291.702C559.84 289.708 559.647 284.475 557.851 279.006C556.208 274 555.084 276.872 553.444 272.98C552.415 270.538 553.06 267.312 552.828 264.815C553.575 258.895 555.09 256.26 560.391 256.941L560.999 253.575C554.894 252.516 552.303 254.396 548.647 249.932L542.863 239.67C540.992 239.115 541.731 240.183 540.35 238.309L543.932 231.236C550.571 211.846 542.892 210.228 535.03 205.693C530.998 203.367 530.463 202.003 527.073 204.853C527.194 205.025 527.38 205.26 527.471 205.344C531.706 209.177 538.097 207.755 535.573 212.435C532.895 215.521 530.489 221.024 527.93 223.253C525.986 224.947 519.392 227.217 516.587 229.111C516.376 232.384 516.895 233.51 515.47 236.9C511.126 247.23 515.923 251.181 506.187 257.584C490.042 268.202 496.805 271.861 489.314 277.914L486.946 284.187L485.57 286.96L484.795 287.8L483.57 289.578C483.712 298.059 477.899 309.473 481.366 317.293C483.499 316.553 486.134 315.184 487.773 313.376C491.066 315.224 489.105 312.848 488.754 315.893C488.751 315.91 487.475 318.965 487.408 319.142C490.678 321.252 494.638 324.868 498.241 326.518C502.107 324.772 506.317 318.493 511.495 323.569C518.176 330.119 512.834 329.635 525.757 331.403C530.365 332.034 528.878 333.868 533.156 333.485C535.375 333.288 539.148 333.082 541.825 332.77C547.816 332.071 552.11 330.117 558.987 329.737L559.027 327.482C559.676 323.481 558.492 320.579 558.236 317.134C557.606 308.662 557.615 313.342 553.534 308.105C555.121 301.153 561.709 295.188 566.117 294.179L566.115 294.179ZM395.001 487.628C396.034 485.954 396.467 485.343 397.476 483.539C401.49 481.542 406.985 473.17 412.662 469.759C415.373 468.13 419.244 466.433 422.299 464.661C426.054 462.482 428.329 460.852 432.499 459.605L439.041 449.848C441.726 446.912 443.923 444.554 446.243 441.502C454.07 431.205 456.914 437.676 459.233 431.996C459.937 430.271 460.214 425.877 460.415 423.911L440.355 414.64C435.418 410.619 436.875 411.525 433.663 407.614C432.015 405.607 427.882 403.344 425.801 400.82C423.94 398.804 424.788 396.79 423.603 394.132C422.517 391.698 422.719 393.29 421.843 391.202C420.835 388.794 421.235 391.374 421.395 388.472C419.149 386.438 419.807 386.275 417.76 384.506C413.87 384.959 413.957 386.365 409.792 386.906C406.804 387.294 402.908 386.778 399.596 386.811C379.113 387.019 383.61 373.373 361.496 380.026C357.009 381.377 349.938 384.931 347.996 387.57C345.788 391.899 342.889 394.999 340.391 400.155C339.286 402.437 338.367 405.216 337.052 407.058C335.6 409.093 334.093 409.722 332.763 411.679C334.649 414.014 333.327 412.781 336.217 414.326L339.27 415.113L338.167 418.764L334.241 418.231L332.988 419.028L332.867 420.749C333.719 424.861 336.599 428.5 337.086 431.938C337.807 437.013 334.755 441.507 335.607 446.598C336.947 454.601 353.89 454.647 362.4 455.964C365.957 456.393 365.784 455.468 369.582 455.26L370.339 457.651C373.404 459.768 373.956 461.775 376.679 463.458C377.008 478.03 365.842 481.829 382.693 484.654C388.192 485.574 391.782 487.435 394.997 487.624L395.001 487.628ZM190.088 239.953C191.552 241.572 191.573 240.385 194.946 241.202C196.202 240.548 194.113 240.81 197.991 240.141C199.049 239.959 200.184 240.012 201.279 240.11C204.076 240.358 206.564 241.02 209.557 241.307L214.541 242.019C215.003 246.548 212.991 267.606 213.506 269.074C218.29 272.01 217.664 271.104 219.638 275.629C228.277 279.867 225.977 285.345 237.514 285.168C245.938 285.038 241.313 285.074 248.294 287.355C254.806 289.484 250.983 286.077 256.235 291.837C260.671 296.703 265.447 293.272 270.547 298.883C276.458 305.388 275.953 302.954 284.734 304.514C289.871 305.427 289.265 308.021 295.892 308.786C297.719 305.4 298.933 306.734 301.246 301.923C304.829 294.469 304.14 299.123 307.684 294.608C311.468 289.788 308.095 288.61 307.581 284.367C307.089 280.306 309.523 276.949 310.306 272.657C300.732 267.853 283.845 268.635 284.471 253.686C284.716 247.823 284.698 244.262 286.736 238.717L285.285 233.416C266.758 228.246 267.747 221.14 260.46 219.063C243.315 214.174 243.55 226.382 236.071 229.631C232.04 231.381 230.058 230.276 226.626 231.486C222.064 233.096 224.154 235.055 221.763 238.736C217.31 238.791 216.616 237.748 212.502 238.484C208.267 239.242 210.118 239.634 205.177 238.081C198.061 235.846 195.032 237.727 190.089 239.952L190.088 239.953ZM620.406 470.177L619.591 474.78L630.182 480.246C637.128 482.429 637.911 478.411 641.845 474.601C646.49 470.105 647.094 473.217 650.426 464.323C658.589 462.774 659.205 455.487 659.841 453.502C660.692 450.85 666.955 444.365 660.985 440.202C656.711 437.408 653.636 435.102 651.485 431.744C649.849 431.068 649.539 431.954 650.641 430.568L647.789 429.188C645.942 432.656 645.093 432.138 641.058 433.801C640.043 445.834 639.394 441.057 638.354 446.035C635.864 457.948 642.039 451.827 627.283 462.589C624.726 464.454 621.806 466.452 619.919 468.166L620.407 470.175L620.406 470.177ZM663.028 405.798C659.737 408.223 661.458 410.074 658.411 412.683C655.529 415.149 654.343 413.768 652.177 418.903L655.993 421.829C655.832 425.688 654.706 426.927 652.67 429.042C655.64 432.714 658.752 435.017 661.269 437.782C665.467 438.146 671.949 435.015 675.809 433.397C677.844 427.475 676.396 426.034 676.413 420.913C676.43 415.931 679.579 413.918 681.759 411.231L683.592 408.794L685.522 400.143L684.397 394.641C684.186 388.53 686.31 360.676 694.099 356.43C695.196 355.831 710.076 353.523 715.599 345.897C716.77 344.28 719.277 340.747 718.566 339.487C713.473 337.344 712.187 337.961 709.503 332.88C707.542 329.169 705.973 325.708 707.44 321.06C710.893 319.681 708.414 320.954 710.405 320.681L712.865 320.297C713.076 320.261 713.44 320.238 713.701 320.123L709.582 291.423L688.717 283.89C686.134 287.58 683.333 290.994 679.213 291.572C674.674 292.207 668.805 292.453 664.618 290.778C660.47 285.999 665.188 283.233 656.735 281.421C653.407 283.285 652.321 285.752 646.426 285.612C633.689 285.309 638.866 291.138 630.721 291.196C621.631 291.26 627.953 284.697 613.647 284.104L612.986 285.898C612.075 295.172 611.432 298.505 604.41 300.851C600.732 302.079 588.114 302.363 584.455 301.073C579.199 299.222 578.217 291.283 569.094 294.633C565.17 296.074 558 301.867 556.797 306.889C558.346 309.211 557.573 307.788 558.819 309.159C560.884 311.427 559.874 309.143 560.796 311.897C561.254 313.265 561.135 317.546 561.488 319.648C563.017 328.765 563.448 327.167 559.385 333.319C561.656 336.561 560.551 333.972 563.7 335.929C562.653 338.645 561.239 338.937 558.616 340.907C558.535 355.357 570.491 354.962 560.616 362.961L562.95 367.693C573.921 367.92 585.57 357.675 595.366 359.182C603.216 360.389 599.37 363.156 601.643 368.084C622.94 370.14 610.378 371.25 636.742 381.576C641.023 383.253 642.672 382.691 643.372 386.763C645.48 399.013 639.973 384.699 666.916 399.479C665.946 405.09 666.552 401.687 665.064 402.797C664.951 402.969 664.823 403.041 664.739 403.32C664.649 403.621 664.459 403.763 664.383 403.875C664.078 404.321 663.282 405.462 663.03 405.801L663.028 405.798ZM606.811 488.631C602.923 490.804 571.781 488.805 565.104 488.24C566.374 492.708 569.132 492.347 566.486 496.579C564.778 499.31 562.134 499.369 561.411 503.257C567.139 509.632 556.892 501.776 563.162 504.684C568.006 506.93 569.169 502.384 581.718 502.888C590.692 503.249 599.618 505.845 607.512 506.281C615.763 495.697 606.692 499.686 624.818 495.836C627.869 495.188 628.658 493.864 630.654 491.866C630.394 488.384 630.521 488.957 631.724 485.453L630.276 483.695C630.159 483.554 629.776 483.114 629.567 482.874L621.636 478.377C617.109 476.259 615.717 472.345 613.43 480.577C612.073 485.461 610.143 486.244 606.811 488.629L606.811 488.631ZM460.495 434.07C459.617 435.846 461.235 434.914 458.371 436.462C452.902 439.417 456.111 433.778 450.397 441.536C448.169 444.562 445.278 446.464 442.912 451.607C438.698 454.656 439.427 456.494 436.119 459.668C434.143 461.564 430.519 464.228 428.185 464.651C425.716 467.696 426.589 465.742 424.021 468.067C431.278 469.068 433.507 467.705 440.643 470.888C445.18 472.911 449.811 474.182 454.097 476.941C466.859 485.156 469.028 478.133 475.869 485.214C477.804 487.217 479.323 487.753 478.933 491.176C476.385 496.004 477.217 498.123 478.513 503.222C479.052 505.343 479.82 506.779 480.294 508.633C480.817 510.675 480.759 512.314 481.442 514.221C485.621 514.447 488.969 514.911 492.261 517.38L490.512 521.122C498.51 521.947 494.444 518.888 500.104 524.08C503.616 522.785 504.143 521.004 513.545 517.836C518.652 516.115 523.638 514.712 527.952 512.501C541.748 505.433 540.585 511.006 555.051 506.337C559.344 504.952 557.023 507.654 558.242 503.562C557.759 493.827 569.842 499.252 560.412 489.257C555.734 491.471 552.332 491.494 547.336 493.544C542.663 495.461 537.698 499.018 534.686 493.98C530.687 492.284 531.208 490.1 530.106 484.955C529.348 481.408 527.455 478.059 527.44 475.095C529.833 473.913 532.004 473.731 533.981 472.294C533.434 469.207 532.318 467.885 528.257 466.785C523.205 465.417 523.082 467.037 521.068 462.951C520.476 459.686 522.803 458.239 524.291 454.984C523.471 453.052 522.09 452.285 521.814 450.447C521.507 448.396 521.911 449.839 521.999 447.904C522.21 443.222 515.814 443.074 513.917 444.095C509.097 442.862 502.172 444.58 496.735 444.709C482.45 445.048 488.1 437.582 488.107 436.349C483.898 433.601 480.08 434.249 474.67 433.527C461.358 431.752 467.809 434.087 460.496 434.071L460.495 434.07ZM528.348 456.608C526.078 458.249 524.467 460.24 524.089 463.579C531.811 466.03 539.122 465.837 537.724 474.667L531.504 476.045C531.275 483.196 534.275 483.94 533.967 489.322C542.811 498.933 544.451 485.443 568.581 486.233C577.355 486.52 591.689 487.317 600.503 486.404C606.038 485.83 605.007 484.701 609.038 482.802C610.152 475.771 611.579 476.244 616.001 473.425L615.474 466.624L623.088 462.239C625.933 460.725 632.508 455.594 634.646 453.15C635.493 447.047 632.889 449.666 636.123 443.925C638.603 439.522 638.03 437.449 638.295 432.309C643.604 427.984 647.806 427.12 653.119 424.698C651.233 419.339 648.523 421.467 649.178 416.825C649.609 413.773 652.474 413.076 654.855 410.09C657.105 409.512 656.922 408.351 658.478 405.906C660.619 402.543 660.88 403.721 662.966 401.064C646.539 390.575 647.661 398.396 641.962 393.994C639.324 391.956 640.427 389.762 639.301 387.174C637.425 382.854 625.378 379.568 619.531 376.656C612.604 373.208 614.076 371.775 605.792 371.323C602.098 371.121 599.678 371.121 598.276 368.717C597.237 366.932 597.808 366.692 597.535 365.18C597.03 362.391 598.069 364.743 596.776 362.232C583.347 359.259 567.579 378.754 558 366.515L557.786 364.843L554.271 362.696C550.498 365.079 552.836 365.939 546.35 364.933L546.165 366.52C547.906 370.292 548.141 371.481 547.309 375.931C543.318 378.172 542.827 378.769 537.286 377.905C534.937 382.995 533.342 380.339 533.007 386.305C533.861 390.434 534.097 390.592 532.799 395.013C530.685 396.133 531.214 395.469 529.708 396.055C527.009 397.103 528.853 395.954 527.054 397.598L530.237 399.809C533.519 401.525 530.053 398.863 533.049 401.425L530.182 410.626C526.207 413.841 526.732 410.07 520.706 415.617C516.808 415.215 503.244 410.276 496.458 411.032C494.112 411.294 493.056 412.116 489.981 412.568C484.38 413.391 478.562 410.746 474.867 413.407C471.889 415.552 473.093 416.739 470.604 418.86C467.829 421.223 468.684 418.075 465.811 422.739L464.068 426.199L462.877 430.241C469.81 429.99 475.601 431.11 482.632 432.199C499.225 434.77 488.257 437.714 491.445 440.782C495.09 444.289 514.391 437.296 526.889 444.572L525.34 450.348C528.356 454.321 528.344 450.798 528.346 456.611L528.348 456.608ZM715.978 336.101L722.498 336.852C726.711 332.629 724.667 330.8 730.186 328.349C739.527 324.2 739.205 326.925 741.523 323.205C730.672 322.501 734.946 318.313 729.093 313.587C720.262 306.456 718.089 310.581 714.469 306.084C715.149 311.443 717.889 317.629 716.589 323.261L709.475 324.272C710.57 330.294 711.536 333.186 715.977 336.1L715.978 336.101ZM734.754 316.481C735.64 319.81 734.057 318.241 737.811 320.697C738.652 321.248 741.195 322.308 742.239 322.696L743.19 322.628C753.856 319.313 751.403 313.96 758.908 310.658L764.842 307C764.224 304.202 766.001 305.503 761.25 304.218C759.899 303.852 756.253 303.735 754.641 303.58L750.189 304C742.325 305.023 739.21 308.989 731.163 303.83C728.398 302.057 726.397 299.193 723.976 298.079C719.518 296.027 718.643 298.677 714.544 299.749C716.837 311.543 719.644 300.417 734.755 316.483L734.754 316.481ZM709.949 261.7C713.732 265.798 710.888 269.086 710.676 272.83C717.679 282.949 728.122 269.761 735.308 271.696L730.973 283.03C736.73 285.343 737.563 284.514 742.513 283.51C746.987 282.603 750.674 283.517 754.43 282.743C763.535 280.865 766.516 277.201 775.165 283.15C772.582 284.832 776.227 283.972 773.033 283.964C770.932 283.959 768.861 281.895 763.562 282.687C758.547 283.435 758.393 285.415 752.593 285.205C744.123 284.902 736.995 289.08 729.076 285.326L727.596 283.912C728.637 278.734 730.087 278.089 732.12 274.082C725.875 274.813 715.667 283.283 709.951 274.147C704.263 272.859 697.334 274.927 691.831 269.953C684.921 263.707 687.334 265.126 676.492 263.815C673.22 270.259 677.311 271.223 669.857 274.13C667.333 275.115 660.859 278.172 659.161 279.696C665.172 284.958 664.947 279.394 665.888 289.565L679.345 289.312C683.039 284.504 686.215 278.661 694.916 282.548C698.755 284.262 696.899 285.086 703.77 287.197C707.602 288.375 710.332 289.345 713.141 290.905L713.452 297.737C730.253 292.631 718.578 295.276 734.902 302.894C740.804 305.648 741.168 302.61 747.421 301.831C751.855 301.278 756.702 301.222 761.305 301.512C772.943 304.216 765.781 301.93 772.726 299.339L771.841 306.058C773.255 303.852 774.217 294.493 774.726 290.869C778.666 274.109 774.076 282.58 774.939 273.857C775.075 272.483 775.439 271.556 775.457 270.188C775.461 269.874 775.457 269.625 775.442 269.334L774.921 267.057C774.895 266.772 774.93 266.081 774.862 266.2C774.792 266.322 774.805 265.551 774.771 265.33C774.734 265.091 774.528 263.888 774.457 263.578L774.518 260.736C770.764 257.572 772.417 258.324 770.975 248.666C769.534 239.011 762.294 240.57 749.515 237.657C747.079 237.102 733.782 229.899 732.723 228.661L731.671 227.527C727.478 223.541 722.723 220.918 720.538 217.458C715.194 208.993 706.046 204.577 701.296 199.771C694.599 192.994 690.442 191.866 679.933 188.941C673.59 187.176 670.616 188.379 666.296 188.313C661.131 188.235 658.644 184.388 656.869 184.399C652.94 183.908 648.559 182.134 643.534 181.107C634.826 179.324 631.89 170.634 620.553 173.466C615.294 174.779 618.348 178.011 611.266 176.261C611.381 173.989 611.714 173.067 611.924 171.025C612.589 164.53 611.627 164.509 608.887 161.894C598.26 151.75 604.631 158.57 596.507 154.217C587.075 149.163 592.403 147.154 577.512 147.391C574.87 145.311 576.855 146.266 575.789 145.273L561.492 137.317C558.167 135.29 554.843 134.583 550.649 133.971C544.347 133.051 544.529 134.973 540.048 134.188C537.792 130.549 538.026 127.78 534.365 126.207C527.254 123.154 510.735 121.733 509.644 109.86L509.398 107.62L507.713 113.593C507.578 113.447 507.361 113.262 507.28 113.183L505.367 111.238C505.324 110.895 505.016 110.853 504.853 110.649L502.053 109.885C501.024 110.538 500.731 110.877 500.378 111.115C498.607 112.314 500.613 111.209 498.539 112.189C495.746 120.716 491.152 114.859 486.323 120.856C483.765 123.245 482.711 125.218 481.151 126.91C478.968 129.278 477.473 131.15 475.12 132.458C468.247 136.277 463.244 132.381 459.728 128.154C459.424 125.963 458.264 123.058 456.929 120.858C454.921 117.548 454.895 118.717 451.774 116.307C448.463 113.751 448.012 107.962 448.153 102.266C436.177 96.0461 446.867 96.6205 438.248 90.3023C430.536 84.6504 432.08 84.5433 421.702 83.3794C420.699 82.0244 420.365 85.0032 421.096 81.0921L422.032 81.1045C429.431 82.2146 441.945 88.2462 444.465 94.9928C446.808 101.266 447.35 97.6557 450.166 101.765C450.696 104.662 450.274 109.185 451.783 112.136C453.774 116.031 456.428 115.322 458.64 117.976C461.846 121.821 460.393 130.75 468.948 131.659C477.979 132.619 478.796 119.314 490.183 115.488C494.41 114.068 494.655 113.052 497.493 111.508C498.964 108.756 499.98 106.42 504.206 106.466L509.629 105.888C510.345 105.169 509.997 105.9 510.669 104.251C514.267 95.4147 508.986 94.3015 506.591 92.2296C504.056 90.0363 504.471 89.312 502.352 87.7497C498.8 85.1311 499.393 87.7248 497.134 84.1516C495.453 81.4932 496.952 81.5868 493.272 78.8616C493.213 75.3922 492.204 77.9932 492.837 73.6884C492.844 70.8412 491.273 65.6513 490.776 61.4944C490.63 54.6375 489.276 51.2294 481.861 50.3801C476.938 54.3501 475.708 55.5599 471.644 61.4828C469.007 65.3238 464.379 71.5629 463.478 76.499C461.788 80.3154 462.073 78.2735 457.816 80.1728C455.74 81.0979 454.607 82.0055 451.984 82.3473C443.561 83.4436 444.306 77.2736 441.096 76.5856C435.579 76.945 436.569 79.5406 431.407 78.211L423.491 74.0937L419.559 78.6358C420.494 74.2885 419.45 75.5999 419.499 74.5583C419.52 74.1035 419.171 74.0871 419.015 73.847L418.659 72.0548C410.31 69.9195 411.2 73.0299 403.647 71.1251C396.524 69.3296 399.256 72.2857 396.528 79.5181C389.846 80.3799 390.811 78.9088 386.934 77.5412C375.673 73.566 374.677 74.6192 370.304 76.4964C366.965 77.9304 368.856 76.856 365.177 77.5394C360.024 78.4982 362.218 79.6335 353.972 78.2658L353.785 79.852C349.438 79.8581 348.113 78.6407 344.765 80.494L342.867 81.8485C339.141 77.548 340.603 78.9793 336.361 76.8712C325.982 71.7138 335.746 60.1857 332.934 51.5487L334.363 43.636L334.626 40.0407C331.331 38.8514 329.973 36.7267 328.31 33.72C328.219 33.5573 328.082 33.3083 327.991 33.1456C324.723 27.2757 327.283 30.0691 326.32 24.2036C325.645 20.087 315.397 19.7294 312.056 20.0456C309.09 35.7944 309.977 26.5197 296.528 31.2963C293.158 32.4931 294.299 33.1445 291.387 33.4418C289.692 33.6153 286.247 33.0385 285.373 33.307L279.291 33.2105C277.483 34.6399 280.344 33.5614 276.782 34.786C274.703 35.5002 275.623 34.8893 273.852 35.092C269.773 35.5586 270.294 34.0302 268.678 37.7615C265.948 39.4621 240.803 26.3519 237.402 29.0474L236.818 30.7012L244.376 34.5841C244.923 35.5119 245.739 36.152 245.606 38.1017C245.285 42.7887 244.305 41.1497 243.705 41.6783L242.864 47.0524C243.704 48.3467 243.056 47.0711 243.877 49.1535C244.432 50.5615 244.309 50.8673 244.822 51.8518C246.125 54.3523 246.647 54.1767 249.031 55.5498L248.943 56.1077L260.266 59.5298C260.653 62.6188 258.716 58.8139 260.331 60.9031C267.184 61.0311 268.102 62.4732 269.655 67.1273C270.871 76.9642 276.843 78.9288 276.308 85.4457C275.71 92.7231 274.637 89.6046 276.495 97.2547C277.569 101.673 275.357 102.943 274.366 106.323C278.32 109.096 283.466 116.596 289.602 117.859C291.405 114.418 292.04 103.386 299.67 104.771C305.585 105.845 302.149 112.043 314.251 109.337C315.868 105.24 315.292 107.363 314.477 103.707C326.883 101.562 320.391 89.7595 340.669 97.8517C340.063 93.6274 339.104 95.0853 338.823 91.6401C338.559 88.4118 339.463 88.1571 341.141 86.7084L341.566 88.1257C342.297 92.7918 340.427 92.5608 343.255 93.0078L342.623 94.4308C344.216 98.495 343.167 101.281 343.987 105.57C344.808 109.863 347.215 111.968 349.176 115.48C350.882 118.091 351.838 118.637 353.781 120.976C355.28 122.781 356.146 124.982 357.637 126.427C361.783 130.443 368.885 127.664 373.264 132.756C381.082 133.574 385.346 135.966 386.579 142.172C384.463 146.916 381.208 150.647 378.174 154.635L351.562 191.358C338.827 208.439 343.988 202.997 349.267 212.461C350.697 215.024 351.952 218.22 353.137 220.506L356.778 226.194C358.45 229.949 356.715 230.734 356.996 234.491C357.217 237.447 357.668 235.575 357.912 237.701C359.68 238.589 362.99 240.242 364.219 241.572C367.118 244.705 364.456 244.886 367.786 247.358C370.967 249.721 380.252 249.42 384.858 250.158C397.058 252.114 409.393 254.29 421.5 256.679C431.399 258.632 486.745 271.611 491.598 270.193C493.992 260.52 508.206 254.393 510.217 250.948C510.926 246.655 510.398 243.103 511.724 239.04C517.914 220.069 512.055 231.248 524.716 222.305C528.017 219.973 529.315 214.733 532.59 213.138C532.265 209.789 536.007 212.139 530.119 209.354C528.371 208.527 527.169 209.031 525.281 207.811C522.33 205.906 523.559 203.868 525.109 201.911C536.56 199.974 550.726 192.482 556.173 183.17C559.773 177.016 563.342 173.072 567.063 167.238C576.288 152.778 570.215 159.77 575.889 149.277C574.677 163.121 571.51 167.606 564.951 175.69C560.521 181.596 557.629 188.525 552.21 192.569C546.445 196.871 536.044 200.538 533.715 203.035C537.344 204.681 540.659 206.214 544.449 208.14C550.212 211.068 549.626 213.447 549.438 217.364C548.561 223.657 547.41 234.675 543.585 237.341L544.139 239.079C545.858 240.746 548.53 242.739 549.697 244.163C555.447 251.177 546.933 250.123 563.537 251.372C564.208 254.045 565.026 254.472 562.892 256.275C562.742 263.153 558.4 253.087 555.785 263.591C554.401 269.151 556.08 270.932 558.426 274.448C562.057 279.891 560.98 290.32 569.881 291.527C571.822 284.579 569.92 268.35 572.339 264.861C574.295 262.039 577.77 260.417 579.461 256.417C581.81 250.856 580.897 249.376 586.786 248.064C595.61 246.096 600.894 244.116 608.651 241.521C620.184 237.663 626.396 246.703 631.389 238.693C630.149 231.412 626.192 237.62 628.68 225.732C631.348 219.669 632.917 223.386 633.62 215.681C634.292 208.326 632.587 209.033 632.094 203.199C632.568 202.479 638.851 194.519 641.177 193.511C643.719 192.409 645.437 193.01 648.385 191.916C652.308 190.459 650.816 189.451 655.949 189.131C652.161 195.699 650.027 192.632 643.875 194.974C641.642 195.824 635.447 204.453 635.398 204.636L636.386 218.941C634.913 226.803 633.642 220.516 631.533 226.25C628.655 234.075 639.459 240.93 629.562 243.954C621.311 246.475 621.31 238.889 610.109 243.567C600.813 247.449 586.684 250.036 583.811 251.819C582.555 258.256 583.896 257.099 579.603 261.048C578.432 262.126 574.479 266.343 573.899 268.277C573.057 271.079 574.597 274.524 574.281 278.82C573.967 283.072 573.132 287.226 572.974 291.528C585.04 295.594 578.397 300.831 594.493 299.886C605.008 299.269 610.349 298.154 609.67 285.579C609.393 273.71 629.54 288.759 629.546 288.76C633.746 287.194 636.145 283.937 639.396 283.397C648.295 281.924 642.714 285.574 651.621 281.063L671.13 270.233C671.949 267.37 671.639 265.123 671.359 262.092C670.824 256.312 672.278 257.344 672.195 254.154C672.119 251.294 669.918 250.09 668.785 247.434C666.181 241.321 665.999 224.113 664.797 221.235C662.922 216.743 662.799 218.305 663.736 213.366C664.694 208.315 663.669 209.36 663.042 204.759C663.065 202.001 663.407 200.77 663.097 197.719C662.952 196.284 662.439 196.897 662.764 194.344C663.272 190.363 662.159 192.5 664.578 191.003C661.772 198.525 663.951 194.907 665.311 199.304C667.222 205.483 666.267 214.71 666.416 216.877C666.659 220.387 668.337 221.371 668.792 224.148C668.797 224.175 668.538 241.806 672.482 249.033C674.657 253.018 675.237 251.292 675.03 257.522C671.657 263.475 686.114 260.178 691.577 265.137C697.785 270.769 697.774 273.506 708.994 270.602C709.451 263.078 708.034 265.755 707.24 261.031C706.809 258.465 708.132 254.674 708.147 251.027L709.126 248.235C714.431 241.943 716.404 250.535 720.32 238.313C722.579 231.266 726.077 229.258 732.722 228.667C730.254 231.873 729.25 230.588 726.315 233.828C723.752 236.657 723.628 238.235 722.129 242.038C718.927 250.164 710.834 245.093 711.584 253.812C721.366 256.424 726.693 252.475 735.502 252.144C733.179 254.838 730.436 255.303 730.55 260.885C733.759 261.853 738.214 262.069 740.549 262.867C744.004 264.048 742.473 265.231 746.718 267.432C750.417 253.072 747.323 259.103 756.098 262.34C759.534 263.607 771.342 266.768 774.92 267.061C768.833 270.801 756.446 264.104 750.401 262.277C749.395 266.754 750.438 269.707 746.403 269.392C742.385 269.077 743.152 267.176 741.306 264.878C738.206 264.221 732.684 263.989 730.135 262.847C726.085 261.032 728.209 258.544 729.352 255.111C711.193 259.502 710.745 251.379 709.948 261.699L709.949 261.7ZM71.2669 182.444C69.5515 181.92 65.5792 183.546 69.0771 175.219C73.3239 177.106 72.6422 179.816 71.2669 182.444ZM346.39 192.85C347.507 192.169 347.073 192.574 348.199 191.517C348.752 190.997 349.062 190.66 349.61 189.893C351.237 187.62 350.549 188.494 351.535 186.31L354.747 181.274C358.464 179 381.681 146.761 384.047 141.774C382.744 139.21 383.074 137.539 379.83 136.065C376.748 134.664 375.277 135.284 372.425 133.027C368.603 131.632 359.676 130.334 357.348 129.103C355.335 128.039 345.311 114.095 343.695 110.779C340.597 104.421 342.656 105.638 341.13 98.9197L325.564 97.6185C323.724 101.33 325.865 101.932 320.275 103.984C320.013 104.08 319.097 104.393 318.904 104.464C318.756 104.518 318.302 104.95 318.232 104.751C318.163 104.55 317.781 104.937 317.563 105.05C317.305 107.024 318.373 106.364 318.017 109.893C306.106 116.234 303.376 109.568 299.36 107.07C291.265 109.822 296.476 114.506 290.506 120.449C286.434 119.423 282.196 116.485 279.345 114.274C277.263 112.658 276.685 111.738 274.915 109.973L271.272 105.64C272.745 102.215 274.056 103.117 274.127 99.6216C274.166 97.6196 273.031 96.5613 272.714 94.0436C271.885 87.4647 275.38 86.8607 272.879 81.3791C268.333 74.2284 268.367 77.5519 266.655 66.7539C265.039 66.2351 264.89 64.3157 259.144 63.214C255.818 62.5761 252.996 62.7574 249.841 63.3247C247.992 66.7261 248.791 67.6087 245.836 68.702C243.581 69.9111 242.857 70.4227 239.943 70.4655L234.004 72.659C233.709 72.5106 233.349 72.2497 233.192 72.0946C233.068 71.973 232.746 71.6717 232.635 71.5509C231.505 70.3256 231.744 70.4383 232.508 70.559L231.621 73.5537C223.261 73.1152 225.28 78.2767 216.251 75.048C211.16 73.2277 212.814 74.5137 208.937 75.5686C207.329 76.0062 207.167 76.2438 204.926 75.8651L201.425 74.1774C197.689 71.0844 202.353 73.6065 196.967 71.3691C187.11 70.0448 192.031 67.4671 188.285 58.7906C187.838 55.913 189.448 55.9686 185.073 55.0139C179.981 53.9032 182.056 58.1172 174.614 60.1766L171.225 57.1953C167.919 59.6967 170.41 58.668 167.712 61.0978L149.083 59.4687L142.508 58.0681C139.646 63.5604 139.378 73.1768 137.063 76.4505C133.561 81.4039 135.665 79.0275 135.057 84.1867C134.585 88.1982 132.702 90.9155 134.457 95.1587L135.637 87.3655C142.481 90.8773 142.067 94.636 143.507 97.237C144.893 99.7377 144.703 97.9151 146.082 101.276C146.034 106.954 139.73 126.778 137.78 133.291L135.952 139.268C135.349 142.01 134.104 147.344 132.257 150.526L127.184 150.137C118.706 146.827 118.868 147.397 111.992 150.68C108.72 152.244 100.882 151.306 96.5709 151.076C93.997 155.003 96.7936 150.325 87.0215 156.377C82.081 159.437 83.8265 155.982 76.5376 161.42C75.8693 164.529 76.2324 165.974 74.473 167.808C70.4632 171.989 70.8456 164.619 67.3373 177.415C65.1424 185.42 67.307 180.918 56.4308 186.369L54.7228 198.45C58.5247 201.688 60.1107 206.214 63.7603 210.166C67.5712 214.292 71.7338 217.009 69.4935 225.222C72.649 225.802 77.931 226.329 80.7178 227.217C85.4625 228.73 84.3612 229.845 86.1904 233.275C89.1111 238.751 97.6956 236.819 102.867 235.923L108.501 233.344C110.355 230.515 113.437 228.701 117.695 228.58C114.925 236.481 115.153 243.939 114.342 251.304C119.324 255.723 114.861 254.871 126.543 254.169C131.698 253.86 137.166 254.906 142.384 255.186C148.177 255.498 152.261 255.813 156.356 253.804C163.001 250.545 163.723 252.248 169.825 250.344C172.806 247.708 177.129 245.752 181.371 244.302C182.772 243.355 184.341 242.913 185.245 240.655C177.861 238.643 163.64 230.932 155.659 227.506C148.181 224.297 133.988 216.316 128.064 212.668C114.05 204.039 86.0752 202.84 75.6159 198.221C69.6949 195.606 66.1967 193.789 59.6611 191.765L56.3492 192.278L56.7038 188.379C58.0588 188.615 57.8939 188.334 58.7659 188.825C60.6627 189.895 59.5031 189.081 60.565 190.311C66.6526 191.25 73.2078 196.074 79.6718 197.839C90.1007 200.687 118.965 205.301 126.094 208.925C132.246 212.051 137.748 215.521 143.578 218.777C155.386 225.372 168.488 230.995 180.159 236.356C185.084 238.619 185.219 239.499 189.478 237.65C192.822 236.198 195.441 234.504 198.717 234.423C203.04 234.315 204.994 236.412 209.473 236.474C214.78 236.547 212.944 234.831 219.858 236.864C223.112 228.464 221.534 230.476 231.117 228.374C241.16 226.171 235.965 224.595 242.098 219.528C245.069 217.073 251.585 215.002 257.193 215.68C264.622 216.578 267.226 220.122 270.967 223.569C281.444 233.226 327.416 235.676 344.376 237.448C345.962 229.25 344.442 224.103 346.081 218.19C348.419 209.749 342.428 210.58 340.346 205.428C340.057 198.871 345.075 198.421 346.388 192.849L346.39 192.85ZM384.157 546.688L381.662 547.109C379.688 549.265 377.613 548.283 376.06 551.011L370 551.7C368.586 557.336 360.474 559.929 356.471 561.196C353.392 564.524 352.639 563.146 349.789 565.171L344.532 571.288C339.615 579.958 333.563 580.864 332.624 581.589C328.881 584.479 325.767 616.393 324.593 623.521L324.648 626.456C327.663 620.389 329.519 596.352 331.168 587.457C333.26 586.671 335.836 585.647 337.805 584.904C340.201 587.058 338.706 585.169 340.188 587.801C344.101 590.461 348.855 591.405 350.782 596.393C352.476 600.035 352.015 601.999 353.476 604.415C355.679 603.014 357.583 601.395 359.68 600.588C362.088 602.237 362.706 602.558 363.747 606.035C365.584 608.604 369.796 610.31 372.789 611.791C382.531 616.611 374.242 616.893 382.004 620.186C383.787 620.942 383.14 620.304 384.982 621.385C387.775 623.023 388.833 627.426 390.604 630.543L392.955 633.776C393.061 633.906 393.3 634.192 393.386 634.297C396.182 637.686 390.676 642.992 390.668 643.001C387.923 646.565 389.036 648.533 387.814 653.333C393.111 653.432 393.452 652.347 396.963 650.56C398.667 649.692 399.006 649.694 400.587 648.718C405.143 645.9 400.216 647.214 405.101 646.141L407.409 639.87C408.099 634.449 409.249 634.041 416.672 629.632C426.505 623.791 430.057 625.368 439.122 614.7C441.195 612.261 441.919 611.683 444.106 610.032L449.725 605.626C451.044 599.588 455.478 595.302 458.152 591.978L452.358 587.708C451.461 583.004 457.995 579.648 459.552 576.245C450.964 571.403 450.968 577.714 444.209 569.032C439.446 562.913 438.142 565.928 435.669 556.956C422.03 553.963 429.355 552.201 423.344 550.065C421.042 549.247 416.886 549.489 414.071 548.921C410.472 548.196 409.651 547.147 406.262 546.498C403.014 545.967 396.857 544.793 394.431 544.495C390.575 544.023 388.24 546.291 384.155 546.688L384.157 546.688ZM443.994 540.343C443.74 541.786 444.217 543.534 441.613 543.956C440.003 544.218 441.099 544.214 439.653 543.418C437.533 542.249 438.843 542.324 438.613 541.931C436.753 541.088 423.107 535.191 422.111 534.968C414.355 533.227 412.469 535.233 404.501 530.685C401.297 529.258 402.381 532.167 401.133 536.465C399.986 540.418 399.239 540.147 397.233 543.02C402.751 543.817 404.85 542.544 409.41 545.371C414.154 546.762 422.993 547.436 425.623 548.444C428.436 549.524 427.987 550.869 430.089 552.638C434.085 556 437.012 553.17 439.089 558.627C442.691 568.091 442.412 561.33 446.507 567.381C452.942 576.89 453.664 569.627 461.789 575.775C461.325 580.328 456.292 582.433 455.149 585.785L460.381 588.945C464.77 586.303 467.328 582.411 474.04 580.286C479.563 578.538 479.092 578.476 480.591 575.506C482.77 571.19 481.835 569.218 485.92 567.664C486.795 561.139 484.285 557.803 484.84 550.73C485.47 542.72 491.854 541.307 485.007 538.444C475.633 536.116 475.271 540.027 472.326 540.398C466.074 539.84 467.937 537.014 459.623 535.479L446.732 535.928C445.094 539.177 446.398 538.515 443.99 540.341L443.994 540.343ZM401.088 519.999C401.844 530.372 403.164 525.487 406.8 529.555C410.302 530.305 411.81 531.494 415.782 532.085C418.796 532.533 422.737 531.666 424.465 532.658C427.437 534.364 426.154 535.279 431.43 536.772C436.657 538.251 436.984 537.472 439.514 541.248L441.701 541.931C442.681 536.909 442.275 535.847 444.876 533.089C451.495 534.377 449.757 532.91 453.55 531.029C458.311 533.027 458.967 532.431 463.793 533.651C469.428 535.074 467.379 536.418 472.14 538.345C475.516 536.274 474.534 535.543 477.476 535.325C477.748 535.207 478.197 534.788 478.32 535.048L481.883 534.569C483.429 534.623 484.987 535.104 486.614 535.411C487.893 533.623 488.554 531.168 490.409 529.621C494.397 526.295 494.315 530.739 496.9 525.169C495.062 524.32 495.075 524.039 492.477 523.187L487.926 522.835C486.686 518.973 489.204 519.304 486.278 517.734C483.577 516.285 481.899 517.516 479.539 514.955L477.268 514.525C477.376 506.19 476.256 506.797 474.276 501.388C471.767 494.534 475.685 490.919 473.873 487.08C469.935 484.009 464.4 483.769 459.213 482.61C454.647 481.589 451.567 478.555 446.782 476.38C414.902 461.897 411.172 474.784 397.019 491.694C394.445 494.77 395.614 493.437 394.005 497.79C391.806 503.738 391.339 506.018 390.528 512.178L389.489 514.932L390.79 515.044C394.462 512.359 401.122 514.203 401.087 519.999L401.088 519.999ZM315.448 354.424L328.844 356.16L336.94 357.266C334.478 365.59 331.553 367.53 338.361 372.894C343.857 377.225 343.856 376.774 346.711 383.176L349.039 382.935C359.626 376.986 370.899 371.803 386.339 381.295C392.256 384.933 400.637 385.098 408.111 384.468C415.314 383.862 419.828 375.525 422.767 388.817C423.862 389.433 423.564 389.118 424.44 390.047C427.338 377.461 425.343 381.651 431.487 372.724C435.327 370.763 452.352 360.153 455.028 356.335C464.344 343.041 461.323 349.438 465 345.153C469.33 340.107 463.371 342.449 473.974 331.879C477.752 324.583 477.454 299.665 480.87 287.994C482.059 285.267 482.497 283.967 483.92 281.644C484.502 280.693 485.254 279.386 485.778 278.614C487.723 275.753 486.772 277.249 487.81 276.349L488.496 274.767L488.38 272.686C453.241 266.027 420.731 258.061 384.523 252.404C371.819 250.42 366.622 252.168 362.311 244.597L358.853 240.161C358.804 239.789 358.473 239.763 358.305 239.545C353.13 238.172 355.145 233.713 354.088 228.157C353.746 226.362 350.102 219.652 349.018 217.348C347.59 224.535 350.046 234.09 345.987 239.865L289.878 233.942L289.251 239.076C288.16 248.001 285.343 257.323 291.474 262.807C298.452 269.047 307.164 264.081 312.909 273.16C312.597 279.064 309.258 278.69 310.832 285.51C311.777 289.61 314.186 291.054 310.725 295.319C308.282 298.328 305.922 298.118 303.724 302.903C301.637 307.445 303.925 305.204 300.584 307.773C297.752 309.952 298.671 307.378 296.786 311.939C301.991 313.892 300.221 316.783 299.92 322.582C299.663 327.545 299.706 325.354 298.382 328.609C297.001 332.004 297.359 330.117 297.924 333.85C303.045 340.635 299.348 346.377 302.99 351.924C306.148 353.907 311.02 353.716 315.447 354.422L315.448 354.424Z" fill="#FFCC00"/>
<path fill-rule="evenodd" clip-rule="evenodd" d="M561.322 503.242C560.599 509.396 559.013 514.975 557.897 521.045C557.246 524.589 557.112 525.925 556.479 528.615C555.757 531.685 555.137 533.73 554.926 536.848L553.457 545.216C561.039 545.972 563.71 543.107 571.987 543.314C579.732 543.509 586.579 545.199 594.418 546.226C604.374 546.118 599.323 541.632 604.986 538.425C608.537 536.416 614.94 537.26 618.075 535.03C619.66 533.475 620.887 525.836 621.634 522.355L623.627 522.438C624.084 519.526 624.454 514.994 624.815 513.511C625.246 511.747 625.955 509.013 626.572 506.827C628.154 501.219 629.439 496.98 630.564 491.849C628.57 493.848 627.779 495.171 624.728 495.82C606.602 499.669 615.674 495.681 607.421 506.264C599.529 505.829 590.601 503.232 581.627 502.872C569.077 502.367 567.915 506.914 563.07 504.668C556.8 501.76 567.047 509.617 561.32 503.241L561.322 503.242Z" fill="#C99700"/>
<path fill-rule="evenodd" clip-rule="evenodd" d="M112.206 273.349L111.007 294.012L112.617 296.673L141.233 297.392C154.556 298.409 160.055 292.109 166.602 292.862L166.753 291.902C169.616 290.154 171.121 289.269 174.587 289.073C177.863 284.657 180.846 286.536 183.164 278.79C182.487 277.25 182.005 279.377 182.777 275.066L186.088 248.307C186.778 243.43 187.193 241.812 185.323 240.709C184.419 242.967 182.851 243.409 181.449 244.355C177.208 245.805 172.885 247.761 169.903 250.398C163.802 252.3 163.081 250.597 156.435 253.857C152.342 255.865 148.257 255.549 142.465 255.239C137.247 254.959 131.779 253.912 126.624 254.222C114.943 254.924 119.404 255.774 114.424 251.357C115.233 243.991 115.007 236.535 117.776 228.635C113.519 228.756 110.437 230.57 108.583 233.398L102.949 235.977C97.778 236.873 89.1949 238.806 86.2734 233.33C84.4442 229.9 85.5455 228.784 80.801 227.272C78.0144 226.384 72.7326 225.857 69.5772 225.277C71.8175 217.065 67.655 214.348 63.8444 210.222C60.1949 206.271 58.6089 201.746 54.8073 198.507C52.8887 207.278 54.1689 223.795 51.2803 230.504C53.2687 234.885 50.1685 237.092 52.8839 241.653C55.1273 245.423 55.2143 244.072 57.8053 250.058C59.1181 250.94 63.3415 255.315 64.2742 256.546C66.5785 259.582 65.36 263.325 65.1231 267.788C68.5731 268.203 74.6782 268.765 77.905 270.008C81.8053 271.51 81.9786 274.712 83.7686 278.121L91.9388 279.775C92.1726 279.684 92.5955 279.409 92.6767 279.632C92.6803 279.641 96.1376 279.517 98.4245 277.365C102.65 278.408 101.654 278.017 102.886 275.837C106.624 274.052 106.618 272.454 112.205 273.355L112.206 273.349ZM59.7454 191.822C58.7816 190.256 61.6505 190.473 58.2209 190.216L60.6493 190.369C59.5874 189.139 60.7469 189.953 58.8502 188.883C57.9785 188.39 58.1434 188.672 56.7882 188.437L56.4337 192.335L59.7454 191.822ZM71.3482 182.501C72.7235 179.873 73.4052 177.163 69.1586 175.277C65.6608 183.602 69.633 181.977 71.3482 182.501ZM212.208 278.49L215.25 280.154C215.653 279.382 216.502 277.673 216.707 277.469C218.752 275.444 216.836 276.867 219.713 275.678C217.74 271.154 218.366 272.06 213.581 269.124C213.068 267.657 215.08 246.599 214.616 242.071L209.632 241.359C206.64 241.072 204.152 240.411 201.355 240.162C200.26 240.065 199.125 240.013 198.068 240.194C194.189 240.862 196.28 240.6 195.022 241.255C191.65 240.438 191.627 241.624 190.164 240.005L187.193 259.153C186.568 265.527 186.06 273.441 184.778 279.622L184.365 283.203C188.651 283.255 191.767 282.266 195.698 282.514C200.712 282.83 202.191 283.171 206.962 283.139L211.038 284.449L212.208 278.488L212.208 278.49Z" fill="#C99700"/>
<path fill-rule="evenodd" clip-rule="evenodd" d="M500.02 524.088C500.755 530.563 495.334 554.682 493.55 562.477L494.036 563.84C496.601 560.365 502.736 558.93 507.338 557.567C516.977 554.709 522.717 550.896 527.169 549.326C529.823 548.39 543.884 549.703 550.128 545.131L552.034 536.867C553.766 531.13 559.406 507.582 558.163 503.569C556.942 507.661 559.264 504.958 554.971 506.344C540.504 511.013 541.667 505.44 527.869 512.509C523.554 514.719 518.569 516.124 513.461 517.844C504.058 521.013 503.531 522.793 500.019 524.089L500.02 524.088Z" fill="#C99700"/>
<path fill-rule="evenodd" clip-rule="evenodd" d="M741.466 323.107C739.148 326.827 739.471 324.102 730.128 328.252C724.608 330.703 726.652 332.534 722.438 336.756L715.917 336.004C720.004 339.627 718.149 336.957 718.506 339.39C719.217 340.65 716.71 344.184 715.538 345.801C710.013 353.428 695.132 355.737 694.034 356.335C686.245 360.582 684.12 388.44 684.33 394.552C698.092 399.007 702.809 386.452 713.363 376.134C718.465 371.147 715.555 369.711 723.685 368.644C724.831 368.063 727.272 367.853 729.151 366.903C731.338 365.798 731.451 365.461 733.314 363.812C736.538 350.013 741.668 336.798 743.133 322.53L742.182 322.598L741.468 323.107L741.466 323.107Z" fill="#C99700"/>
<path fill-rule="evenodd" clip-rule="evenodd" d="M661.187 437.73L660.903 440.153C666.875 444.315 660.61 450.801 659.759 453.455C659.122 455.441 658.506 462.729 650.34 464.279C647.007 473.174 646.402 470.061 641.756 474.558C637.82 478.369 637.037 482.388 630.088 480.204L632.564 482.563L629.472 482.833C629.681 483.073 630.064 483.513 630.182 483.654L631.63 485.413C630.428 488.917 630.299 488.344 630.559 491.827C629.432 496.958 628.148 501.198 626.566 506.808C625.949 508.994 625.24 511.728 624.808 513.493C624.446 514.976 624.076 519.509 623.62 522.421C623.745 522.387 623.94 522.112 623.953 522.217C624.154 523.883 623.132 523.232 626.652 520.227C630.625 516.835 628.88 516.396 637.034 511.315L638.344 510.541L642.952 503.624C647.251 500.188 647.676 503.266 649.594 496.879L650.969 492.749C651.083 492.576 651.27 492.358 651.391 492.217C652.855 490.534 651.205 491.758 652.982 491.263L655.055 478.028C656.433 477.542 658.965 477.215 660.643 476.457C664.374 474.774 661.34 474.507 666.971 474.212C667.286 468.923 669.53 458.931 671.215 454.249C672.504 450.665 673.495 450.971 675.033 447.064C676.02 444.56 676.859 439.723 677.657 437.861L680.224 425.018L683.113 412.603L681.683 411.176C679.504 413.864 676.353 415.877 676.335 420.861C676.318 425.984 677.767 427.424 675.731 433.348C671.868 434.965 665.385 438.097 661.185 437.733L661.187 437.73Z" fill="#C99700"/>
<path fill-rule="evenodd" clip-rule="evenodd" d="M212.089 278.477L210.919 284.44L209.489 292.355C210.46 294.994 210.123 294.696 209.683 298.222C209.388 300.58 208.896 303.194 208.507 305.556C207.79 309.911 208.026 308.122 209.42 310.806L211.61 315.076C211.812 315.19 212.102 315.228 212.143 315.525L213.172 316.433C213.299 316.543 213.524 316.766 213.669 316.886C217.516 320.096 217.517 318.578 220.587 321.888C224.721 326.348 224.294 326.338 233.064 327.139C248.904 326.933 251.058 334.471 253.189 335.467C255.532 336.564 258.812 336.545 261.644 337.855C268.612 341.077 263.554 343.863 274.39 345.346C283.788 346.631 282.781 348.69 290.499 350.475L295.854 308.826C289.225 308.061 289.833 305.467 284.695 304.554C275.914 302.993 276.418 305.429 270.506 298.922C265.407 293.311 260.63 296.741 256.194 291.876C250.941 286.115 254.765 289.523 248.252 287.394C241.27 285.112 245.896 285.076 237.471 285.206C225.933 285.383 228.234 279.905 219.593 275.666C216.716 276.853 218.632 275.43 216.587 277.457C216.382 277.66 215.533 279.37 215.13 280.143L212.088 278.478L212.089 278.477ZM453.16 627.849C460.054 624.336 460.152 621.899 467.179 620.209C472.833 619.728 472.51 615.996 474.656 611.137C477.074 605.662 476.247 610.433 478.454 606.234C479.538 604.171 479.692 601.097 480.22 598.69L485.582 569.305L485.904 567.728C481.818 569.282 482.753 571.255 480.574 575.571C479.075 578.542 479.546 578.602 474.022 580.351C467.309 582.476 464.752 586.369 460.362 589.011L455.13 585.851C455.094 589.462 455.93 588.696 452.339 587.774L458.133 592.044C455.459 595.368 451.025 599.655 449.705 605.694L444.086 610.1C441.898 611.752 441.174 612.33 439.102 614.768C430.035 625.437 426.484 623.859 416.649 629.702C409.226 634.111 408.076 634.519 407.386 639.94L405.077 646.212C400.191 647.284 405.119 645.971 400.563 648.789C398.983 649.765 398.644 649.763 396.938 650.631C393.427 652.418 393.086 653.503 387.789 653.404C389.011 648.604 387.896 646.636 390.643 643.071C390.651 643.061 396.158 637.755 393.361 634.367C393.275 634.261 393.035 633.976 392.93 633.845L390.579 630.612C388.808 627.495 387.75 623.092 384.957 621.454C383.113 620.373 383.762 621.011 381.978 620.254C374.216 616.961 382.504 616.679 372.763 611.859C369.77 610.378 365.558 608.672 363.72 606.102C362.678 602.624 362.059 602.304 359.653 600.655C357.555 601.461 355.651 603.082 353.448 604.482C351.986 602.066 352.446 600.102 350.753 596.459C348.827 591.471 344.072 590.527 340.158 587.867C338.676 585.234 340.172 587.125 337.775 584.969C335.806 585.713 333.23 586.737 331.138 587.523C329.489 596.418 327.634 620.458 324.618 626.525L328.191 625.725C331.502 625.402 330.954 624.755 332.897 626.217C335.353 628.187 340.669 631.061 342.545 632.997C345.029 635.559 344.002 634.293 345.079 637.791C346.192 641.408 345.843 641.892 348.082 643.574C353.012 642.859 351.041 639.825 354.583 641.838C355.911 642.593 357.208 646.808 357.423 647.663C361.535 649.704 366.074 650.932 368.921 654.701L369.995 656.396C374.279 662.803 374.791 657.115 379.425 662.845L383.418 669.518C386.153 674.316 382.601 684.214 381.89 691.076C384.537 693.366 386.567 692.456 389.529 690.77C391.597 689.593 393.932 688.086 395.839 686.783C403.235 679.279 396.814 678.613 407.513 670.841C411.282 668.102 409.693 669.705 412.78 668.304C416.122 665.798 419.067 665.761 422.144 663.462L442.668 644.692C442.817 644.498 443.307 643.987 443.437 643.559C443.53 643.253 443.677 643.176 443.806 642.992C445.852 637.621 445.29 637.975 448.471 634.511C450.542 632.256 451.837 630.696 453.159 627.85L453.16 627.849ZM334.209 418.284L338.136 418.817L339.239 415.165L336.186 414.378C333.295 412.833 334.617 414.066 332.731 411.731C334.06 409.774 335.569 409.145 337.021 407.109C338.336 405.267 339.254 402.488 340.36 400.206C342.859 395.05 345.758 391.95 347.966 387.62C345.986 383.939 347.488 386.481 347.832 385.075C347.85 385.001 348.978 383.027 349.009 382.982L346.681 383.223C343.827 376.821 343.829 377.271 338.331 372.941C331.523 367.577 334.448 365.637 336.909 357.311L328.813 356.205L315.416 354.468C310.99 353.762 306.116 353.954 302.958 351.97C299.316 346.423 303.012 340.68 297.891 333.894C297.325 330.16 296.968 332.049 298.349 328.653C299.673 325.398 299.63 327.589 299.887 322.626C300.188 316.828 301.957 313.936 296.753 311.982L291.48 352.204C292.506 353.474 292.978 354.005 293.898 354.906L292.321 366.323C290.449 375.073 295.644 377.732 294.765 387.729C297.698 392.323 294.429 392.524 299.74 395.377L329.83 398.786C329.062 400.793 327.766 406.813 328.381 409.275C329.621 414.243 328.245 410.517 330.212 411.467L331.684 415.223C331.915 416.496 331.702 417.726 331.616 419.029L332.961 419.079L334.213 418.282L334.209 418.284ZM363.591 497.422C364.959 498.233 367.671 500.764 368.462 502.56C369.741 505.462 368.6 508.734 367.914 512.388L366.547 522.206L370.669 524.707L370.791 523.869L384.925 525.765C386.378 528.11 384.604 525.082 385.73 527.464L387.137 530.303C387.87 523.489 387.882 521.583 390.763 515.102L389.462 514.99L390.501 512.235C389.263 510.141 389.417 509.609 390.199 505.208C391.244 499.331 392.246 491.597 394.973 487.683C391.757 487.494 388.167 485.633 382.667 484.712C365.815 481.889 376.982 478.088 376.653 463.514C373.93 461.832 373.377 459.824 370.312 457.707L369.555 455.316C365.756 455.524 365.931 456.449 362.372 456.02C353.861 454.703 336.918 454.657 335.577 446.653C334.724 441.563 337.777 437.069 337.057 431.992C336.568 428.554 333.689 424.914 332.837 420.802C330.226 423.847 327.613 447.905 327.303 451.724C327.901 455.444 326.923 459.15 327.527 463.248C328.067 466.912 330.358 469.51 330.509 472.741C330.964 482.554 325.522 486.692 333.603 492.668L336.771 493.712L339.878 493.566L363.591 497.421L363.591 497.422Z" fill="#C99700"/>
<path fill-rule="evenodd" clip-rule="evenodd" d="M743.124 322.515C741.658 336.783 736.528 349.999 733.304 363.798C735.849 362.358 737.254 362.349 739.386 360.378C740.884 358.994 741.954 356.545 743.594 354.719C746.165 351.856 746.55 353.144 749.564 351.464L754.69 346.859C759.268 343.371 760.602 343.163 763.815 335.739L762.506 336.847C762.324 337.009 762.084 337.21 761.892 337.386C756.921 341.966 759.867 342.176 754.94 344.375L764.783 306.882L758.846 310.541C751.339 313.844 753.793 319.197 743.124 322.513L743.124 322.515Z" fill="#C99700"/>
<path fill-rule="evenodd" clip-rule="evenodd" d="M134.573 95.1674L133.161 101.196L133.595 102.613C133.621 102.8 133.718 103.143 133.742 103.382C133.766 103.636 133.802 103.919 133.815 104.212C134.282 114.011 129.192 126.943 133.517 131.86L130.951 148.037C128.12 150.592 130.487 148.779 127.299 150.159L132.375 150.548C134.223 147.365 135.468 142.03 136.072 139.287L137.902 133.308C139.853 126.794 146.159 106.964 146.208 101.285C144.827 97.9234 145.018 99.7467 143.632 97.2454C142.191 94.6437 142.604 90.8839 135.757 87.3713L134.576 95.1666L134.573 95.1674Z" fill="#C99700"/>
<path fill-rule="evenodd" clip-rule="evenodd" d="M477.398 535.349C478.269 535.487 482.272 535.913 482.746 536.063C485.984 537.079 486.096 535.62 484.935 538.469C491.782 541.332 485.397 542.745 484.768 550.757C484.212 557.832 486.722 561.168 485.848 567.695L485.527 569.272L485.589 569.282C488.674 567.933 489.995 566.909 490.95 563.998C490.931 553.302 498.556 529.793 496.83 525.19C494.244 530.761 494.328 526.317 490.338 529.643C488.481 531.19 487.82 533.645 486.541 535.434C484.914 535.129 483.354 534.646 481.808 534.592L478.245 535.071C478.122 534.809 477.672 535.229 477.4 535.348L477.398 535.349Z" fill="#C99700"/>
<path fill-rule="evenodd" clip-rule="evenodd" d="M761.243 301.393C762.452 302.562 760.144 301.201 763.116 302.924C763.656 303.238 764.639 303.544 764.834 303.611C759.168 303.067 757.722 301.758 754.579 303.459C756.192 303.614 759.838 303.731 761.19 304.097C765.943 305.382 764.167 304.082 764.784 306.88L754.941 344.373C759.867 342.175 756.921 341.965 761.893 337.384C762.085 337.208 762.324 337.007 762.506 336.845L763.816 335.737C764.025 333.305 764.715 330.688 765.199 328.14C765.94 324.236 765.371 321.708 768.435 320.745C768.188 317.714 768.573 316.499 769.149 313.336C769.717 310.221 769.957 307.764 771.785 305.94L772.67 299.22C765.723 301.812 772.886 304.098 761.245 301.393L761.243 301.393Z" fill="#C99700"/>
<path fill-rule="evenodd" clip-rule="evenodd" d="M452.366 587.686C455.957 588.608 455.121 589.374 455.157 585.763C456.3 582.412 461.333 580.306 461.797 575.754C453.671 569.607 452.949 576.868 446.515 567.36C442.421 561.309 442.699 568.071 439.098 558.607C437.02 553.149 434.093 555.98 430.098 552.617C427.996 550.849 428.444 549.504 425.631 548.424C423.003 547.415 414.165 546.741 409.419 545.351C404.859 542.524 402.761 543.797 397.242 543.001C399.249 540.128 399.996 540.398 401.143 536.446C402.39 532.148 401.307 529.239 404.51 530.666C412.479 535.212 414.364 533.207 422.119 534.948C423.116 535.172 436.762 541.068 438.622 541.911C438.85 542.304 437.54 542.23 439.661 543.398C441.108 544.194 440.011 544.198 441.621 543.936C444.225 543.514 443.748 541.766 444.002 540.323C446.41 538.497 445.106 539.159 446.744 535.911L459.635 535.461C467.948 536.996 466.084 539.822 472.337 540.38C475.282 540.009 475.644 536.098 485.018 538.426C486.179 535.578 486.066 537.037 482.83 536.021C482.357 535.872 478.354 535.445 477.483 535.307C474.54 535.525 475.525 536.256 472.147 538.327C467.387 536.4 469.436 535.056 463.8 533.633C458.974 532.413 458.317 533.01 453.558 531.011C449.765 532.892 451.504 534.359 444.884 533.071C442.283 535.829 442.689 536.891 441.709 541.912L439.522 541.23C436.991 537.454 436.665 538.233 431.439 536.754C426.163 535.261 427.445 534.345 424.474 532.64C422.745 531.648 418.805 532.515 415.791 532.067C411.819 531.476 410.31 530.287 406.809 529.537C403.173 525.469 401.852 530.354 401.098 519.982C401.133 514.186 394.472 512.342 390.801 515.027C387.92 521.509 387.908 523.414 387.176 530.226L384.167 546.669C388.253 546.272 390.587 544.005 394.443 544.477C396.869 544.774 403.026 545.949 406.274 546.48C409.663 547.129 410.483 548.178 414.082 548.903C416.897 549.47 421.053 549.23 423.355 550.047C429.366 552.182 422.041 553.944 435.68 556.938C438.154 565.908 439.457 562.894 444.22 569.013C450.978 577.694 450.973 571.384 459.562 576.225C458.006 579.628 451.471 582.984 452.368 587.688L452.366 587.686ZM638.294 432.292C638.028 437.431 638.602 439.504 636.122 443.907C632.888 449.647 635.49 447.028 634.644 453.132C632.505 455.575 625.932 460.707 623.087 462.22L615.473 466.605L616 473.406C611.578 476.225 610.152 475.752 609.037 482.782C605.007 484.681 606.038 485.81 600.503 486.384C591.689 487.297 577.356 486.499 568.582 486.213C544.453 485.424 542.811 498.913 533.969 489.301C534.278 483.92 531.278 483.176 531.506 476.025L537.725 474.647C539.123 465.816 531.813 466.01 524.092 463.56C524.468 460.222 526.079 458.23 528.35 456.589C528.349 450.775 528.36 454.298 525.344 450.326L526.893 444.55C514.395 437.275 495.095 444.266 491.45 440.76C488.262 437.692 499.229 434.749 482.637 432.178C475.606 431.089 469.816 429.97 462.883 430.22L464.074 426.178L465.817 422.718C468.69 418.056 467.835 421.204 470.61 418.839C473.099 416.718 471.894 415.532 474.873 413.387C478.567 410.726 484.385 413.371 489.986 412.548C493.061 412.095 494.117 411.274 496.463 411.012C503.249 410.257 516.813 415.195 520.71 415.597C526.736 410.05 526.212 413.819 530.186 410.605L533.053 401.405C530.057 398.842 533.524 401.505 530.241 399.789L527.058 397.579C528.856 395.933 527.012 397.082 529.712 396.035C531.218 395.45 530.689 396.113 532.803 394.993C534.101 390.573 533.865 390.414 533.011 386.286C533.346 380.32 534.94 382.976 537.29 377.886C542.83 378.75 543.322 378.153 547.312 375.912C548.144 371.462 547.908 370.274 546.168 366.501L546.353 364.915C552.84 365.921 550.5 365.061 554.274 362.678L557.789 364.825L558.003 366.497C567.581 378.735 583.349 359.243 596.778 362.214C598.072 364.725 597.032 362.374 597.536 365.162C597.81 366.673 597.239 366.914 598.278 368.699C599.678 371.102 602.1 371.103 605.794 371.305C614.076 371.757 612.606 373.188 619.532 376.638C625.379 379.549 637.425 382.835 639.302 387.155C640.428 389.743 639.323 391.937 641.962 393.975C647.661 398.377 646.539 390.557 662.966 401.045C660.88 403.701 660.617 402.523 658.478 405.886C656.922 408.331 657.105 409.492 654.855 410.07C652.474 413.057 649.61 413.753 649.178 416.804C648.522 421.446 651.233 419.319 653.119 424.677C647.806 427.099 643.604 427.963 638.295 432.288L638.294 432.292ZM621.634 478.36L629.566 482.857L632.656 482.586L630.182 480.228L619.591 474.763L620.406 470.161L619.919 468.152C621.805 466.438 624.725 464.44 627.282 462.575C642.038 451.813 635.863 457.934 638.352 446.022C639.394 441.043 640.041 445.821 641.057 433.788C645.092 432.126 645.94 432.643 647.787 429.176L650.64 430.556C649.537 431.942 649.847 431.055 651.483 431.732C653.635 435.089 656.71 437.394 660.983 440.189L661.267 437.767C658.751 435.002 655.639 432.699 652.669 429.027C654.705 426.911 655.831 425.673 655.992 421.814L652.176 418.888C654.34 413.753 655.528 415.135 658.41 412.669C661.457 410.061 659.736 408.209 663.027 405.784C663.279 405.446 664.074 404.304 664.379 403.858C664.456 403.746 664.645 403.603 664.735 403.304C664.819 403.023 664.948 402.953 665.06 402.781C666.549 401.672 665.943 405.073 666.912 399.463C639.97 384.683 645.476 398.997 643.369 386.747C642.669 382.674 641.021 383.236 636.739 381.56C610.376 371.235 622.938 370.125 601.642 368.069C599.369 363.141 603.214 360.374 595.365 359.167C585.57 357.66 573.92 367.906 562.95 367.679L560.615 362.946C570.49 354.948 558.533 355.342 558.616 340.894C561.238 338.922 562.652 338.632 563.7 335.916C560.551 333.96 561.656 336.548 559.385 333.306C563.449 327.155 563.017 328.752 561.487 319.636C561.135 317.533 561.253 313.254 560.796 311.885C559.874 309.131 560.884 311.415 558.819 309.146C557.572 307.778 558.346 309.199 556.797 306.877C558 301.856 565.17 296.063 569.094 294.622C578.216 291.272 579.199 299.209 584.454 301.062C588.113 302.351 600.731 302.067 604.408 300.839C611.429 298.494 612.073 295.16 612.984 285.887L613.645 284.093C627.952 284.686 621.628 291.249 630.718 291.185C638.863 291.127 633.687 285.298 646.423 285.601C652.318 285.741 653.402 283.274 656.731 281.41C665.184 283.221 660.467 285.988 664.614 290.767C668.802 292.442 674.67 292.196 679.209 291.561C683.329 290.984 686.13 287.568 688.713 283.879L709.577 291.412L713.696 320.11C713.435 320.225 713.07 320.248 712.86 320.284L710.4 320.668C708.41 320.941 710.889 319.669 707.435 321.048C705.968 325.694 707.537 329.156 709.497 332.867C712.182 337.948 713.468 337.33 718.56 339.473C718.204 337.042 720.057 339.711 715.973 336.088C711.532 333.173 710.567 330.281 709.471 324.26L716.584 323.25C717.884 317.618 715.145 311.431 714.465 306.074C718.083 310.57 720.258 306.447 729.089 313.577C734.94 318.302 730.667 322.489 741.518 323.194L742.232 322.685C741.189 322.296 738.646 321.236 737.804 320.685C734.05 318.228 735.633 319.799 734.746 316.47C719.636 300.405 716.829 311.531 714.537 299.737C718.635 298.665 719.51 296.015 723.968 298.067C726.389 299.181 728.39 302.045 731.155 303.818C739.203 308.977 742.318 305.011 750.18 303.988L754.632 303.567C757.774 301.867 759.219 303.176 764.883 303.72C764.688 303.653 763.706 303.347 763.166 303.033C760.197 301.309 762.502 302.671 761.294 301.502C756.692 301.212 751.844 301.267 747.41 301.821C741.157 302.6 740.793 305.638 734.892 302.884C718.57 295.266 730.243 292.621 713.442 297.727L713.132 290.895C710.323 289.336 707.593 288.365 703.76 287.188C696.89 285.077 698.746 284.253 694.908 282.539C686.205 278.654 683.03 284.495 679.337 289.303L665.88 289.556C664.939 279.385 665.164 284.949 659.154 279.688C660.851 278.163 667.325 275.106 669.849 274.121C677.303 271.213 673.212 270.251 676.483 263.807C687.327 265.118 684.913 263.699 691.823 269.945C697.324 274.918 704.253 272.849 709.942 274.138C715.658 283.274 725.865 274.804 732.11 274.073C730.077 278.079 728.628 278.725 727.586 283.903L729.066 285.317C736.986 289.071 744.114 284.892 752.582 285.196C758.383 285.405 758.536 283.425 763.551 282.678C768.85 281.886 770.921 283.95 773.021 283.955C776.215 283.964 772.571 284.823 775.154 283.141C766.505 277.193 763.526 280.857 754.419 282.734C750.665 283.509 746.977 282.594 742.503 283.501C737.551 284.505 736.72 285.335 730.963 283.021L735.298 271.688C728.112 269.753 717.67 282.94 710.667 272.821C710.878 269.077 713.722 265.789 709.939 261.692C710.737 251.371 711.186 259.493 729.343 255.104C728.2 258.537 726.075 261.024 730.126 262.839C732.675 263.981 738.197 264.212 741.297 264.87C743.142 267.168 742.376 269.07 746.393 269.384C750.427 269.7 749.385 266.748 750.391 262.27C756.436 264.096 768.823 270.793 774.91 267.053C771.332 266.76 759.525 263.6 756.088 262.332C747.313 259.095 750.408 253.064 746.709 267.424C742.464 265.223 743.994 264.04 740.54 262.859C738.205 262.06 733.751 261.845 730.542 260.877C730.427 255.296 733.17 254.832 735.493 252.137C726.684 252.466 721.357 256.415 711.576 253.804C710.826 245.086 718.919 250.155 722.121 242.031C723.619 238.229 723.744 236.651 726.307 233.822C729.241 230.58 730.245 231.867 732.714 228.66C726.068 229.252 722.57 231.259 720.312 238.306C716.394 250.528 714.423 241.936 709.118 248.228L708.139 251.02C708.124 254.667 706.801 258.457 707.232 261.024C708.025 265.747 709.443 263.07 708.986 270.594C697.766 273.498 697.778 270.761 691.57 265.129C686.107 260.171 671.65 263.467 675.023 257.514C675.23 251.285 674.65 253.012 672.475 249.026C668.531 241.799 668.789 224.169 668.786 224.142C668.33 221.365 666.652 220.383 666.41 216.871C666.26 214.704 667.214 205.478 665.304 199.299C663.945 194.903 661.764 198.52 664.571 190.999C662.152 192.497 663.266 190.359 662.757 194.34C662.431 196.892 662.945 196.278 663.091 197.714C663.4 200.764 663.058 201.996 663.035 204.754C663.663 209.355 664.687 208.31 663.729 213.361C662.793 218.299 662.917 216.739 664.791 221.229C665.991 224.107 666.173 241.314 668.779 247.426C669.911 250.083 672.113 251.287 672.188 254.147C672.272 257.336 670.817 256.305 671.352 262.085C671.632 265.115 671.942 267.363 671.124 270.225L651.615 281.054C642.708 285.565 648.287 281.914 639.39 283.389C636.139 283.927 633.74 287.185 629.541 288.75C629.536 288.75 609.389 273.703 609.665 285.57C610.345 298.143 605.004 299.259 594.489 299.877C578.394 300.821 585.036 295.584 572.97 291.519C573.129 287.216 573.964 283.063 574.277 278.811C574.593 274.516 573.054 271.071 573.895 268.269C574.476 266.335 578.428 262.118 579.599 261.04C583.893 257.092 582.552 258.248 583.807 251.812C586.678 250.029 600.809 247.441 610.104 243.561C621.305 238.883 621.306 246.468 629.556 243.947C639.453 240.923 628.649 234.068 631.527 226.244C633.636 220.509 634.908 226.797 636.38 218.936L635.392 204.631C635.44 204.448 641.636 195.819 643.869 194.969C650.022 192.627 652.155 195.694 655.943 189.126C650.81 189.447 652.302 190.455 648.379 191.911C645.431 193.005 643.715 192.405 641.172 193.507C638.845 194.515 632.562 202.474 632.089 203.194C632.582 209.028 634.287 208.32 633.615 215.675C632.911 223.379 631.341 219.663 628.675 225.726C626.186 237.613 630.142 231.405 631.383 238.686C626.39 246.696 620.18 237.656 608.646 241.514C600.888 244.11 595.605 246.091 586.782 248.057C580.893 249.369 581.806 250.85 579.457 256.409C577.767 260.41 574.291 262.031 572.335 264.853C569.916 268.343 571.818 284.572 569.877 291.518C560.977 290.311 562.053 279.882 558.423 274.439C556.077 270.923 554.398 269.144 555.782 263.583C558.397 253.079 562.738 263.145 562.888 256.267C565.021 254.464 564.205 254.038 563.534 251.364C546.93 250.116 555.444 251.17 549.694 244.156C548.528 242.734 545.856 240.741 544.136 239.072L543.583 237.334C547.407 234.67 548.558 223.653 549.435 217.358C549.623 213.441 550.209 211.062 544.446 208.134C540.656 206.21 537.342 204.676 533.712 203.03C536.041 200.533 546.442 196.866 552.207 192.565C557.626 188.521 560.518 181.593 564.947 175.686C571.506 167.602 574.673 163.117 575.886 149.274C570.212 159.767 576.285 152.776 567.06 167.235C563.338 173.069 559.769 177.012 556.17 183.166C550.724 192.477 536.558 199.969 525.107 201.906C523.557 203.863 522.328 205.902 525.279 207.806C527.167 209.026 528.369 208.522 530.117 209.349C536.003 212.134 532.263 209.784 532.588 213.132C529.312 214.727 528.015 219.967 524.714 222.299C512.052 231.241 517.912 220.064 511.722 239.033C510.396 243.097 510.926 246.648 510.216 250.94C508.205 254.386 493.991 260.514 491.597 270.185C486.744 271.604 431.4 258.625 421.501 256.671C409.396 254.282 397.062 252.107 384.86 250.151C380.255 249.413 370.97 249.714 367.789 247.351C364.46 244.879 367.122 244.7 364.222 241.565C362.993 240.236 359.683 238.582 357.915 237.694C357.671 235.568 357.22 237.442 356.999 234.484C356.718 230.728 358.454 229.942 356.781 226.188L353.141 220.5C351.955 218.215 350.701 215.018 349.271 212.455C343.992 202.992 338.831 208.433 351.566 191.354L378.177 154.633C381.211 150.644 384.465 146.914 386.581 142.17C385.349 135.964 381.085 133.572 373.267 132.754C368.888 127.662 361.787 130.441 357.64 126.425C356.148 124.98 355.283 122.78 353.785 120.975C351.842 118.637 350.886 118.09 349.179 115.479C347.218 111.968 344.812 109.862 343.991 105.57C343.171 101.281 344.22 98.4948 342.627 94.4309L343.259 93.0079C340.431 92.561 342.301 92.792 341.57 88.126L341.145 86.7088C339.467 88.1575 338.563 88.4121 338.827 91.6403C339.11 95.0855 340.069 93.6277 340.673 97.8516C320.396 89.7598 326.887 101.562 314.482 103.706C315.297 107.362 315.873 105.24 314.255 109.336C302.154 112.042 305.59 105.844 299.675 104.771C292.047 103.386 291.412 114.417 289.608 117.858C283.472 116.595 278.326 109.096 274.372 106.322C275.363 102.944 277.573 101.674 276.502 97.2546C274.645 89.6051 275.716 92.7232 276.314 85.4461C276.849 78.9296 270.877 76.9638 269.661 67.1287C268.108 62.4747 267.192 61.033 260.338 60.9047C258.723 58.8156 260.661 62.6206 260.272 59.5315L248.95 56.1095L249.038 55.5517C246.654 54.1774 246.132 54.353 244.829 51.8538C244.316 50.8694 244.439 50.5636 243.884 49.1557C243.064 47.0734 243.712 48.3489 242.872 47.0546L243.712 41.6808C244.312 41.1523 245.292 42.7899 245.613 38.1043C245.746 36.1548 244.93 35.516 244.383 34.5869L236.826 30.7043L235.854 39.9704L233.294 54.0534C233.382 54.3021 233.518 54.4165 233.493 54.8166L233.233 62.0282C232.867 64.9542 232.669 67.6163 232.518 70.558C231.754 70.4373 231.515 70.3247 232.645 71.5499C232.756 71.6707 233.079 71.9707 233.203 72.0936C233.36 72.2488 233.72 72.5095 234.014 72.658L239.953 70.4645C242.867 70.4217 243.592 69.9103 245.846 68.7011C248.8 67.6079 248.003 66.7256 249.851 63.3241C253.005 62.7566 255.828 62.5755 259.154 63.2134C264.9 64.3152 265.049 66.2346 266.665 66.7532C268.377 77.5507 268.343 74.226 272.888 81.3777C275.389 86.8602 271.894 87.4642 272.723 94.0415C273.04 96.5591 274.175 97.6174 274.136 99.6192C274.065 103.115 272.754 102.213 271.281 105.638L274.924 109.97C276.694 111.735 277.272 112.655 279.354 114.271C282.204 116.481 286.443 119.42 290.515 120.446C296.485 114.503 291.273 109.819 299.368 107.067C303.384 109.565 306.114 116.231 318.024 109.89C318.38 106.361 317.312 107.022 317.57 105.047C317.787 104.935 318.171 104.547 318.24 104.748C318.309 104.947 318.762 104.517 318.911 104.462C319.105 104.39 320.02 104.078 320.282 103.982C325.872 101.929 323.732 101.327 325.572 97.6163L341.137 98.9174C342.663 105.635 340.604 104.419 343.702 110.776C345.318 114.092 355.342 128.035 357.354 129.099C359.683 130.331 368.609 131.628 372.431 133.023C375.282 135.282 376.754 134.66 379.836 136.061C383.079 137.535 382.75 139.206 384.053 141.769C381.686 146.757 358.469 178.995 354.754 181.267L351.542 186.304C350.555 188.489 351.243 187.614 349.616 189.887C349.068 190.653 348.759 190.992 348.205 191.511C347.079 192.568 347.514 192.163 346.397 192.843C345.085 198.415 340.066 198.864 340.356 205.421C342.437 210.573 348.428 209.744 346.09 218.182C344.451 224.097 345.971 229.242 344.385 237.44C327.426 235.668 281.455 233.218 270.979 223.562C267.238 220.115 264.635 216.571 257.205 215.673C251.595 214.996 245.081 217.067 242.11 219.521C235.978 224.587 241.173 226.163 231.13 228.366C221.547 230.468 223.126 228.455 219.872 236.856C212.958 234.824 214.795 236.539 209.487 236.465C205.007 236.404 203.054 234.306 198.731 234.414C195.455 234.495 192.837 236.19 189.493 237.641C185.234 239.49 185.098 238.61 180.173 236.348C168.502 230.987 155.401 225.365 143.593 218.77C137.764 215.514 132.263 212.044 126.111 208.918C118.982 205.294 90.1183 200.681 79.6897 197.832C73.2262 196.066 66.6712 191.243 60.5836 190.305L58.1552 190.152C61.5849 190.409 58.7147 190.192 59.6797 191.758C66.2151 193.782 69.7132 195.6 75.634 198.215C86.0927 202.835 114.066 204.033 128.08 212.661C134.004 216.308 148.197 224.289 155.674 227.498C163.654 230.924 177.874 238.634 185.26 240.647C187.131 241.75 186.715 243.366 186.024 248.245L182.714 275.005C181.942 279.316 182.423 277.188 183.101 278.729L184.714 279.562C185.996 273.383 186.504 265.468 187.129 259.092L190.101 239.944C195.045 237.72 198.074 235.838 205.188 238.074C210.129 239.627 208.277 239.234 212.513 238.477C216.627 237.741 217.32 238.783 221.774 238.728C224.164 235.048 222.074 233.089 226.637 231.479C230.069 230.269 232.05 231.374 236.081 229.624C243.559 226.375 243.325 214.167 260.47 219.057C267.756 221.135 266.766 228.239 285.293 233.409L286.744 238.71C284.707 244.254 284.724 247.815 284.479 253.678C283.853 268.626 300.74 267.842 310.314 272.648C309.53 276.94 307.097 280.297 307.588 284.357C308.103 288.599 311.476 289.777 307.692 294.598C304.148 299.112 304.838 294.459 301.254 301.912C298.941 306.723 297.727 305.389 295.9 308.775L290.546 350.418C290.244 353.012 289.377 351.692 291.524 352.147L296.797 311.93C298.681 307.367 297.763 309.941 300.595 307.764C303.935 305.195 301.647 307.437 303.734 302.894C305.933 298.109 308.293 298.32 310.735 295.31C314.196 291.046 311.788 289.601 310.842 285.502C309.268 278.681 312.607 279.056 312.919 273.152C307.174 264.074 298.463 269.04 291.485 262.8C285.354 257.316 288.171 247.995 289.262 239.07L289.889 233.936L345.996 239.859C350.055 234.084 347.599 224.529 349.027 217.343C350.111 219.649 353.755 226.357 354.096 228.152C355.151 233.696 353.147 238.15 358.284 239.532C358.356 240.11 358.193 239.71 358.313 239.54C358.481 239.758 358.811 239.784 358.861 240.156L362.319 244.592C366.63 252.161 371.827 250.414 384.53 252.399C420.737 258.055 453.246 266.021 488.384 272.68L488.5 274.761L487.815 276.343C486.776 277.242 487.727 275.747 485.782 278.608C485.258 279.378 484.508 280.686 483.924 281.637C482.501 283.96 482.063 285.26 480.874 287.987C477.458 299.657 477.757 324.574 473.979 331.87C463.374 342.439 469.334 340.098 465.005 345.144C461.329 349.429 464.349 343.032 455.033 356.325C452.357 360.142 435.333 370.752 431.493 372.713C425.35 381.64 427.344 377.45 424.446 390.035C423.57 389.107 423.87 389.421 422.773 388.805C422.62 388.113 422.462 387.482 422.3 386.903L349.047 382.923C349.016 382.969 347.888 384.943 347.87 385.016C347.526 386.422 346.026 383.881 348.004 387.561C349.946 384.922 357.017 381.368 361.504 380.018C383.617 373.365 379.12 387.01 399.602 386.802C402.914 386.767 406.809 387.284 409.799 386.897C413.963 386.356 413.876 384.95 417.766 384.497C419.813 386.266 419.155 386.429 421.401 388.463C421.241 391.365 420.84 388.785 421.849 391.193C422.724 393.28 422.523 391.689 423.608 394.123C424.793 396.781 423.946 398.795 425.806 400.81C427.889 403.335 432.021 405.597 433.668 407.604C436.88 411.514 435.425 410.609 440.36 414.63L460.419 423.901C460.22 425.867 459.943 430.259 459.237 431.985C456.917 437.664 454.075 431.193 446.248 441.49C443.928 444.542 441.731 446.9 439.046 449.836L432.504 459.592C428.334 460.838 426.059 462.47 422.305 464.649C419.251 466.421 415.379 468.117 412.668 469.746C406.992 473.155 401.497 481.527 397.483 483.526C396.473 485.33 396.04 485.941 395.007 487.614C392.28 491.525 391.279 499.26 390.234 505.136C389.452 509.537 389.299 510.068 390.536 512.163C391.347 506.004 391.815 503.724 394.013 497.776C395.622 493.424 394.453 494.757 397.027 491.681C411.179 474.771 414.908 461.884 446.788 476.367C451.572 478.54 454.653 481.576 459.219 482.597C464.405 483.756 469.94 483.996 473.878 487.066C475.691 490.904 471.774 494.52 474.281 501.374C476.26 506.783 477.381 506.175 477.273 514.511L479.544 514.941C481.904 517.5 483.583 516.271 486.283 517.719C489.209 519.289 486.691 518.958 487.931 522.819L492.482 523.172C495.079 524.024 495.066 524.305 496.905 525.154C498.631 529.755 491.008 553.259 491.026 563.953C493.273 563.377 492.275 564.607 493.638 562.448C495.422 554.655 500.842 530.538 500.107 524.064C494.448 518.872 498.513 521.93 490.516 521.105L492.265 517.364C488.971 514.895 485.625 514.429 481.446 514.205C480.763 512.298 480.821 510.659 480.298 508.617C479.823 506.763 479.057 505.328 478.517 503.206C477.22 498.107 476.388 495.988 478.937 491.161C479.328 487.738 477.808 487.202 475.874 485.199C469.033 478.119 466.865 485.141 454.102 476.927C449.816 474.168 445.185 472.896 440.649 470.873C433.511 467.691 431.284 469.054 424.027 468.053C426.595 465.728 425.722 467.681 428.191 464.637C430.523 464.214 434.149 461.549 436.124 459.655C439.432 456.48 438.705 454.642 442.918 451.594C445.283 446.452 448.174 444.549 450.402 441.523C456.116 433.766 452.907 439.404 458.375 436.449C461.24 434.902 459.621 435.833 460.5 434.057C467.812 434.074 461.362 431.739 474.674 433.513C480.084 434.234 483.901 433.586 488.11 436.335C488.102 437.568 482.454 445.032 496.737 444.695C502.174 444.565 509.099 442.848 513.919 444.081C515.817 443.06 522.213 443.208 522 447.89C521.913 449.825 521.508 448.382 521.816 450.433C522.092 452.269 523.473 453.037 524.293 454.969C522.805 458.224 520.477 459.67 521.07 462.936C523.084 467.022 523.207 465.402 528.258 466.769C532.32 467.869 533.436 469.192 533.982 472.279C532.006 473.715 529.835 473.899 527.441 475.079C527.457 478.043 529.348 481.392 530.108 484.938C531.209 490.085 530.689 492.267 534.688 493.963C537.699 499.001 542.664 495.444 547.337 493.527C552.335 491.476 555.736 491.454 560.413 489.24C569.841 499.236 557.758 493.811 558.243 503.545C559.486 507.559 553.846 531.102 552.115 536.839C554.099 537.346 553.238 537.323 555.016 536.844C555.226 533.726 555.846 531.682 556.568 528.612C557.2 525.922 557.334 524.585 557.987 521.043C559.104 514.974 560.688 509.395 561.412 503.24C562.133 499.352 564.778 499.293 566.486 496.562C569.132 492.331 566.375 492.691 565.104 488.224C571.781 488.789 602.922 490.787 606.81 488.614C610.141 486.229 612.071 485.446 613.429 480.562C615.716 472.331 617.109 476.243 621.634 478.363L621.634 478.36ZM422.269 386.795C419.325 376.416 414.922 383.883 408.116 384.455C400.643 385.085 392.262 384.92 386.346 381.283C370.906 371.791 359.633 376.973 349.046 382.922L422.269 386.795ZM528.607 409.365C519.036 411.117 520.657 413.309 510.64 410.059C505.961 408.541 496.185 408.01 491.755 409.167C485.56 410.786 478.116 408.151 473.658 410.479C471.948 411.373 465.269 418.736 462.159 421.081C431.674 409.83 442.813 410.551 432.885 403.257C426.458 398.535 429.307 402.419 427.145 394.964C425.948 370.679 449.461 367.918 456.783 358.74C459.694 355.089 458.838 353.891 462.679 350.847C470.042 345.013 469.016 341.909 474.766 334.391C477.113 335.485 478.28 327.8 478.93 325.388C480.228 320.586 482.897 319.174 485.46 317.046L486.434 321.713C488.162 323.361 486.459 322.132 489.06 323.32C493.788 325.48 491.843 323.753 495.889 329.211C503.364 328.619 501.671 325.572 507.293 324.144C513.333 324.441 508.308 329.951 523.171 333.574C526.502 334.386 527.265 335.482 529.651 336.037C536.141 337.548 549.206 333.31 555.162 332.489C555.388 332.749 557.041 334.457 557.076 334.502L560.474 336.175C558.393 339.436 559.309 337.454 556.207 339.548C555.879 344.445 555.773 347.082 557.744 350.711C561.19 357.056 560.529 353.722 559.126 362.061C557.026 360.83 556.907 360.179 553.91 358.855C552.149 359.76 550.857 361.25 549.723 361.759C547.093 362.936 547.297 361.329 543.553 363.569C542.714 368.437 543.383 365.195 544.422 366.595C544.412 370.928 546.368 369.445 544.224 374.945C540.197 376.509 539.719 373.977 536.165 376.342C527.363 382.201 531.041 388.284 531.052 392.431C527.648 394.729 526.515 393.499 523.905 396.12C525.385 399.989 526.383 399.686 529.525 401.854C529.053 405.178 528.011 406.51 528.606 409.363L528.607 409.365ZM504.853 110.653C505.015 110.856 505.325 110.899 505.368 111.241L507.28 113.186C507.361 113.265 507.579 113.45 507.713 113.597L509.399 107.623L509.63 105.89L504.207 106.468C499.981 106.423 498.965 108.758 497.494 111.511C494.656 113.055 494.411 114.07 490.184 115.49C478.798 119.316 477.981 132.62 468.95 131.66C460.395 130.751 461.848 121.823 458.643 117.978C456.43 115.324 453.776 116.032 451.785 112.138C450.277 109.187 450.699 104.663 450.169 101.767C447.352 97.6585 446.811 101.269 444.468 94.9958C441.948 88.2495 429.435 82.2182 422.035 81.1081L421.099 81.0957C420.368 85.0066 420.702 82.0292 421.706 83.3829C432.083 84.5479 430.539 84.6538 438.251 90.3055C446.869 96.6233 436.18 96.0502 448.155 102.269C448.015 107.965 448.467 113.753 451.776 116.309C454.897 118.719 454.925 117.55 456.932 120.86C458.266 123.06 459.426 125.965 459.73 128.155C463.246 132.381 468.249 136.278 475.121 132.459C477.475 131.152 478.969 129.279 481.153 126.912C482.713 125.218 483.767 123.247 486.325 120.858C491.155 114.862 495.748 120.719 498.54 112.191C500.613 111.211 498.608 112.316 500.379 111.117C500.732 110.879 501.024 110.54 502.053 109.888L504.853 110.651L504.853 110.653ZM560.392 256.935C555.091 256.253 553.576 258.888 552.829 264.808C553.061 267.304 552.416 270.531 553.445 272.972C555.085 276.865 556.208 273.992 557.852 278.998C559.647 284.467 559.84 289.699 565.237 291.693L567.128 292.218L566.116 294.17C561.709 295.177 555.121 301.143 553.533 308.095C557.614 313.332 557.605 308.653 558.235 317.124C558.492 320.569 559.676 323.471 559.026 327.471L558.987 329.726C552.11 330.106 547.817 332.061 541.825 332.759C539.148 333.072 535.374 333.277 533.157 333.475C528.877 333.857 530.365 332.023 525.757 331.393C512.835 329.624 518.177 330.108 511.496 323.559C506.318 318.483 502.107 324.762 498.242 326.507C494.64 324.859 490.679 321.243 487.409 319.132C487.477 318.955 488.754 315.901 488.756 315.883C489.106 312.838 491.068 315.214 487.775 313.366C486.136 315.174 483.5 316.544 481.368 317.283C477.9 309.464 483.714 298.049 483.572 289.569L484.797 287.792L485.572 286.952L486.948 284.179L489.316 277.906C496.806 271.852 490.043 268.194 506.188 257.577C515.923 251.174 511.127 247.223 515.471 236.893C516.896 233.504 516.378 232.378 516.588 229.105C519.392 227.211 525.987 224.942 527.93 223.247C530.488 221.019 532.894 215.515 535.573 212.43C538.097 207.75 531.706 209.172 527.472 205.339C527.379 205.255 527.194 205.021 527.074 204.848C530.464 201.999 530.998 203.362 535.03 205.689C542.892 210.223 550.571 211.842 543.931 231.23L540.35 238.303C541.731 240.177 540.992 239.109 542.863 239.664L548.647 249.925C552.302 254.39 554.892 252.51 560.999 253.568L560.391 256.934L560.392 256.935ZM357.914 237.692C358.146 238.675 358.246 239.233 358.283 239.532L357.914 237.692Z" fill="#E5B300"/>
<path fill-rule="evenodd" clip-rule="evenodd" d="M684.329 394.557L685.454 400.059C687.928 399.898 686.035 399.373 690.695 397.893C695.302 396.43 692.261 397.791 696.291 395.019L704.508 389.27C704.683 389.129 704.936 388.932 705.099 388.8C705.276 388.659 705.59 388.418 705.739 388.301C705.894 388.177 706.177 387.941 706.405 387.773C708.18 385.937 708.274 384.67 709.868 382.651L721.812 371.041C721.984 370.684 722.318 370.769 722.546 370.595C724.58 370.738 722.659 370.935 723.678 368.653C715.549 369.718 718.459 371.155 713.358 376.142C702.804 386.458 698.088 399.013 684.329 394.559L684.329 394.557Z" fill="#C99700"/>
<path fill-rule="evenodd" clip-rule="evenodd" d="M552.026 536.859L550.119 545.124L553.458 545.234L554.928 536.865C553.15 537.346 554.011 537.367 552.026 536.859Z" fill="#C99700"/>
</svg>
